ISO-10303-21;
HEADER;
/* Generated by software containing ST-Developer
 * from STEP Tools, Inc. (www.steptools.com) 
 */

FILE_DESCRIPTION(
/* description */ (''),
/* implementation_level */ '2;1');

FILE_NAME(
/* name */ '',
/* time_stamp */ '2026-01-31T16:14:08+08:00',
/* author */ (''),
/* organization */ (''),
/* preprocessor_version */ 'ST-DEVELOPER v20.1',
/* originating_system */ 'Autodesk Translation Framework v14.24.0.0',
/* authorisation */ '');

FILE_SCHEMA (('AUTOMOTIVE_DESIGN { 1 0 10303 214 3 1 1 }'));
ENDSEC;

DATA;
#10=MECHANICAL_DESIGN_GEOMETRIC_PRESENTATION_REPRESENTATION('',(#13),#1304);
#11=SHAPE_REPRESENTATION_RELATIONSHIP('SRR','None',#1311,#12);
#12=ADVANCED_BREP_SHAPE_REPRESENTATION('',(#14),#1303);
#13=STYLED_ITEM('',(#1320),#14);
#14=MANIFOLD_SOLID_BREP('\X2\5B9E4F53\X0\1',#748);
#15=FACE_BOUND('',#191,.T.);
#16=FACE_BOUND('',#192,.T.);
#17=FACE_BOUND('',#193,.T.);
#18=FACE_BOUND('',#194,.T.);
#19=FACE_BOUND('',#195,.T.);
#20=FACE_BOUND('',#196,.T.);
#21=FACE_BOUND('',#197,.T.);
#22=FACE_BOUND('',#198,.T.);
#23=FACE_BOUND('',#199,.T.);
#24=FACE_BOUND('',#200,.T.);
#25=FACE_BOUND('',#201,.T.);
#26=FACE_BOUND('',#203,.T.);
#27=FACE_BOUND('',#204,.T.);
#28=FACE_BOUND('',#205,.T.);
#29=FACE_BOUND('',#206,.T.);
#30=FACE_BOUND('',#207,.T.);
#31=FACE_BOUND('',#208,.T.);
#32=FACE_BOUND('',#209,.T.);
#33=FACE_BOUND('',#210,.T.);
#34=FACE_BOUND('',#211,.T.);
#35=FACE_BOUND('',#212,.T.);
#36=FACE_BOUND('',#213,.T.);
#37=CIRCLE('',#764,3.1);
#38=CIRCLE('',#765,3.1);
#39=CIRCLE('',#768,3.1);
#40=CIRCLE('',#769,3.1);
#41=CIRCLE('',#772,3.1);
#42=CIRCLE('',#773,3.1);
#43=CIRCLE('',#776,3.1);
#44=CIRCLE('',#777,3.1);
#45=CIRCLE('',#780,3.1);
#46=CIRCLE('',#781,3.1);
#47=CIRCLE('',#784,3.1);
#48=CIRCLE('',#785,3.1);
#49=CIRCLE('',#788,3.1);
#50=CIRCLE('',#789,3.1);
#51=CIRCLE('',#792,3.1);
#52=CIRCLE('',#793,3.1);
#53=CIRCLE('',#795,2.54999999999999);
#54=CIRCLE('',#796,2.54999999999999);
#55=CIRCLE('',#798,2.55);
#56=CIRCLE('',#799,2.55);
#57=CIRCLE('',#801,2.55);
#58=CIRCLE('',#802,2.55);
#59=CIRCLE('',#804,2.55);
#60=CIRCLE('',#805,2.55);
#61=CIRCLE('',#807,2.55);
#62=CIRCLE('',#808,2.55);
#63=CIRCLE('',#810,2.55);
#64=CIRCLE('',#811,2.55);
#65=CIRCLE('',#813,9.55);
#66=CIRCLE('',#814,9.55);
#67=CIRCLE('',#816,14.6012423650916);
#68=CIRCLE('',#817,14.6012423650916);
#69=CIRCLE('',#819,6.5);
#70=CIRCLE('',#820,6.5);
#71=CIRCLE('',#822,14.6012423650916);
#72=CIRCLE('',#823,14.6012423650916);
#73=CIRCLE('',#825,6.5);
#74=CIRCLE('',#826,6.5);
#75=CIRCLE('',#828,14.6012423650916);
#76=CIRCLE('',#829,14.6012423650916);
#77=CIRCLE('',#831,6.5);
#78=CIRCLE('',#832,6.5);
#79=CIRCLE('',#834,14.6012423650916);
#80=CIRCLE('',#835,14.6012423650916);
#81=CIRCLE('',#837,6.5);
#82=CIRCLE('',#838,6.5);
#83=CIRCLE('',#840,14.6012423650916);
#84=CIRCLE('',#841,14.6012423650916);
#85=CIRCLE('',#843,6.5);
#86=CIRCLE('',#844,6.5);
#87=CIRCLE('',#846,14.6012423650916);
#88=CIRCLE('',#847,14.6012423650916);
#89=CIRCLE('',#849,6.5);
#90=CIRCLE('',#850,6.5);
#91=CYLINDRICAL_SURFACE('',#763,3.1);
#92=CYLINDRICAL_SURFACE('',#767,3.1);
#93=CYLINDRICAL_SURFACE('',#771,3.1);
#94=CYLINDRICAL_SURFACE('',#775,3.1);
#95=CYLINDRICAL_SURFACE('',#779,3.1);
#96=CYLINDRICAL_SURFACE('',#783,3.1);
#97=CYLINDRICAL_SURFACE('',#787,3.1);
#98=CYLINDRICAL_SURFACE('',#791,3.1);
#99=CYLINDRICAL_SURFACE('',#794,2.54999999999999);
#100=CYLINDRICAL_SURFACE('',#797,2.55);
#101=CYLINDRICAL_SURFACE('',#800,2.55);
#102=CYLINDRICAL_SURFACE('',#803,2.55);
#103=CYLINDRICAL_SURFACE('',#806,2.55);
#104=CYLINDRICAL_SURFACE('',#809,2.55);
#105=CYLINDRICAL_SURFACE('',#812,9.55);
#106=CYLINDRICAL_SURFACE('',#815,14.6012423650916);
#107=CYLINDRICAL_SURFACE('',#818,6.5);
#108=CYLINDRICAL_SURFACE('',#821,14.6012423650916);
#109=CYLINDRICAL_SURFACE('',#824,6.5);
#110=CYLINDRICAL_SURFACE('',#827,14.6012423650916);
#111=CYLINDRICAL_SURFACE('',#830,6.5);
#112=CYLINDRICAL_SURFACE('',#833,14.6012423650916);
#113=CYLINDRICAL_SURFACE('',#836,6.5);
#114=CYLINDRICAL_SURFACE('',#839,14.6012423650916);
#115=CYLINDRICAL_SURFACE('',#842,6.5);
#116=CYLINDRICAL_SURFACE('',#845,14.6012423650916);
#117=CYLINDRICAL_SURFACE('',#848,6.5);
#118=FACE_OUTER_BOUND('',#155,.T.);
#119=FACE_OUTER_BOUND('',#156,.T.);
#120=FACE_OUTER_BOUND('',#157,.T.);
#121=FACE_OUTER_BOUND('',#158,.T.);
#122=FACE_OUTER_BOUND('',#159,.T.);
#123=FACE_OUTER_BOUND('',#160,.T.);
#124=FACE_OUTER_BOUND('',#161,.T.);
#125=FACE_OUTER_BOUND('',#162,.T.);
#126=FACE_OUTER_BOUND('',#163,.T.);
#127=FACE_OUTER_BOUND('',#164,.T.);
#128=FACE_OUTER_BOUND('',#165,.T.);
#129=FACE_OUTER_BOUND('',#166,.T.);
#130=FACE_OUTER_BOUND('',#167,.T.);
#131=FACE_OUTER_BOUND('',#168,.T.);
#132=FACE_OUTER_BOUND('',#169,.T.);
#133=FACE_OUTER_BOUND('',#170,.T.);
#134=FACE_OUTER_BOUND('',#171,.T.);
#135=FACE_OUTER_BOUND('',#172,.T.);
#136=FACE_OUTER_BOUND('',#173,.T.);
#137=FACE_OUTER_BOUND('',#174,.T.);
#138=FACE_OUTER_BOUND('',#175,.T.);
#139=FACE_OUTER_BOUND('',#176,.T.);
#140=FACE_OUTER_BOUND('',#177,.T.);
#141=FACE_OUTER_BOUND('',#178,.T.);
#142=FACE_OUTER_BOUND('',#179,.T.);
#143=FACE_OUTER_BOUND('',#180,.T.);
#144=FACE_OUTER_BOUND('',#181,.T.);
#145=FACE_OUTER_BOUND('',#182,.T.);
#146=FACE_OUTER_BOUND('',#183,.T.);
#147=FACE_OUTER_BOUND('',#184,.T.);
#148=FACE_OUTER_BOUND('',#185,.T.);
#149=FACE_OUTER_BOUND('',#186,.T.);
#150=FACE_OUTER_BOUND('',#187,.T.);
#151=FACE_OUTER_BOUND('',#188,.T.);
#152=FACE_OUTER_BOUND('',#189,.T.);
#153=FACE_OUTER_BOUND('',#190,.T.);
#154=FACE_OUTER_BOUND('',#202,.T.);
#155=EDGE_LOOP('',(#491,#492,#493,#494));
#156=EDGE_LOOP('',(#495,#496,#497,#498));
#157=EDGE_LOOP('',(#499,#500,#501,#502));
#158=EDGE_LOOP('',(#503,#504,#505,#506));
#159=EDGE_LOOP('',(#507,#508,#509,#510));
#160=EDGE_LOOP('',(#511,#512,#513,#514));
#161=EDGE_LOOP('',(#515,#516,#517,#518));
#162=EDGE_LOOP('',(#519,#520,#521,#522));
#163=EDGE_LOOP('',(#523,#524,#525,#526));
#164=EDGE_LOOP('',(#527,#528,#529,#530));
#165=EDGE_LOOP('',(#531,#532,#533,#534));
#166=EDGE_LOOP('',(#535,#536,#537,#538));
#167=EDGE_LOOP('',(#539,#540,#541,#542));
#168=EDGE_LOOP('',(#543,#544,#545,#546));
#169=EDGE_LOOP('',(#547,#548,#549,#550));
#170=EDGE_LOOP('',(#551,#552,#553,#554));
#171=EDGE_LOOP('',(#555,#556,#557,#558));
#172=EDGE_LOOP('',(#559,#560,#561,#562));
#173=EDGE_LOOP('',(#563,#564,#565,#566));
#174=EDGE_LOOP('',(#567,#568,#569,#570));
#175=EDGE_LOOP('',(#571,#572,#573,#574));
#176=EDGE_LOOP('',(#575,#576,#577,#578));
#177=EDGE_LOOP('',(#579,#580,#581,#582));
#178=EDGE_LOOP('',(#583,#584,#585,#586));
#179=EDGE_LOOP('',(#587,#588,#589,#590));
#180=EDGE_LOOP('',(#591,#592,#593,#594));
#181=EDGE_LOOP('',(#595,#596,#597,#598));
#182=EDGE_LOOP('',(#599,#600,#601,#602));
#183=EDGE_LOOP('',(#603,#604,#605,#606));
#184=EDGE_LOOP('',(#607,#608,#609,#610));
#185=EDGE_LOOP('',(#611,#612,#613,#614));
#186=EDGE_LOOP('',(#615,#616,#617,#618));
#187=EDGE_LOOP('',(#619,#620,#621,#622));
#188=EDGE_LOOP('',(#623,#624,#625,#626));
#189=EDGE_LOOP('',(#627,#628,#629,#630));
#190=EDGE_LOOP('',(#631,#632,#633,#634,#635,#636,#637,#638,#639,#640,#641,
#642));
#191=EDGE_LOOP('',(#643));
#192=EDGE_LOOP('',(#644));
#193=EDGE_LOOP('',(#645));
#194=EDGE_LOOP('',(#646));
#195=EDGE_LOOP('',(#647));
#196=EDGE_LOOP('',(#648));
#197=EDGE_LOOP('',(#649));
#198=EDGE_LOOP('',(#650,#651,#652,#653));
#199=EDGE_LOOP('',(#654,#655,#656,#657));
#200=EDGE_LOOP('',(#658,#659,#660,#661));
#201=EDGE_LOOP('',(#662,#663,#664,#665));
#202=EDGE_LOOP('',(#666,#667,#668,#669,#670,#671,#672,#673,#674,#675,#676,
#677));
#203=EDGE_LOOP('',(#678));
#204=EDGE_LOOP('',(#679));
#205=EDGE_LOOP('',(#680));
#206=EDGE_LOOP('',(#681));
#207=EDGE_LOOP('',(#682));
#208=EDGE_LOOP('',(#683));
#209=EDGE_LOOP('',(#684));
#210=EDGE_LOOP('',(#685,#686,#687,#688));
#211=EDGE_LOOP('',(#689,#690,#691,#692));
#212=EDGE_LOOP('',(#693,#694,#695,#696));
#213=EDGE_LOOP('',(#697,#698,#699,#700));
#214=LINE('',#1092,#265);
#215=LINE('',#1094,#266);
#216=LINE('',#1096,#267);
#217=LINE('',#1097,#268);
#218=LINE('',#1103,#269);
#219=LINE('',#1106,#270);
#220=LINE('',#1108,#271);
#221=LINE('',#1109,#272);
#222=LINE('',#1116,#273);
#223=LINE('',#1118,#274);
#224=LINE('',#1120,#275);
#225=LINE('',#1121,#276);
#226=LINE('',#1127,#277);
#227=LINE('',#1130,#278);
#228=LINE('',#1132,#279);
#229=LINE('',#1133,#280);
#230=LINE('',#1140,#281);
#231=LINE('',#1142,#282);
#232=LINE('',#1144,#283);
#233=LINE('',#1145,#284);
#234=LINE('',#1151,#285);
#235=LINE('',#1154,#286);
#236=LINE('',#1156,#287);
#237=LINE('',#1157,#288);
#238=LINE('',#1164,#289);
#239=LINE('',#1166,#290);
#240=LINE('',#1168,#291);
#241=LINE('',#1169,#292);
#242=LINE('',#1175,#293);
#243=LINE('',#1178,#294);
#244=LINE('',#1180,#295);
#245=LINE('',#1181,#296);
#246=LINE('',#1189,#297);
#247=LINE('',#1195,#298);
#248=LINE('',#1201,#299);
#249=LINE('',#1207,#300);
#250=LINE('',#1213,#301);
#251=LINE('',#1219,#302);
#252=LINE('',#1225,#303);
#253=LINE('',#1232,#304);
#254=LINE('',#1235,#305);
#255=LINE('',#1241,#306);
#256=LINE('',#1247,#307);
#257=LINE('',#1253,#308);
#258=LINE('',#1259,#309);
#259=LINE('',#1265,#310);
#260=LINE('',#1271,#311);
#261=LINE('',#1277,#312);
#262=LINE('',#1283,#313);
#263=LINE('',#1289,#314);
#264=LINE('',#1295,#315);
#265=VECTOR('',#857,10.);
#266=VECTOR('',#858,10.);
#267=VECTOR('',#859,10.);
#268=VECTOR('',#860,10.);
#269=VECTOR('',#867,10.);
#270=VECTOR('',#870,10.);
#271=VECTOR('',#871,10.);
#272=VECTOR('',#872,10.);
#273=VECTOR('',#881,10.);
#274=VECTOR('',#882,10.);
#275=VECTOR('',#883,10.);
#276=VECTOR('',#884,10.);
#277=VECTOR('',#891,10.);
#278=VECTOR('',#894,10.);
#279=VECTOR('',#895,10.);
#280=VECTOR('',#896,10.);
#281=VECTOR('',#905,10.);
#282=VECTOR('',#906,10.);
#283=VECTOR('',#907,10.);
#284=VECTOR('',#908,10.);
#285=VECTOR('',#915,10.);
#286=VECTOR('',#918,10.);
#287=VECTOR('',#919,10.);
#288=VECTOR('',#920,10.);
#289=VECTOR('',#929,10.);
#290=VECTOR('',#930,10.);
#291=VECTOR('',#931,10.);
#292=VECTOR('',#932,10.);
#293=VECTOR('',#939,10.);
#294=VECTOR('',#942,10.);
#295=VECTOR('',#943,10.);
#296=VECTOR('',#944,10.);
#297=VECTOR('',#955,2.54999999999999);
#298=VECTOR('',#962,2.55);
#299=VECTOR('',#969,2.55);
#300=VECTOR('',#976,2.55);
#301=VECTOR('',#983,2.55);
#302=VECTOR('',#990,2.55);
#303=VECTOR('',#997,9.55);
#304=VECTOR('',#1004,10.);
#305=VECTOR('',#1007,10.);
#306=VECTOR('',#1014,10.);
#307=VECTOR('',#1021,10.);
#308=VECTOR('',#1028,10.);
#309=VECTOR('',#1035,10.);
#310=VECTOR('',#1042,10.);
#311=VECTOR('',#1049,10.);
#312=VECTOR('',#1056,10.);
#313=VECTOR('',#1063,10.);
#314=VECTOR('',#1070,10.);
#315=VECTOR('',#1077,10.);
#316=VERTEX_POINT('',#1090);
#317=VERTEX_POINT('',#1091);
#318=VERTEX_POINT('',#1093);
#319=VERTEX_POINT('',#1095);
#320=VERTEX_POINT('',#1099);
#321=VERTEX_POINT('',#1101);
#322=VERTEX_POINT('',#1105);
#323=VERTEX_POINT('',#1107);
#324=VERTEX_POINT('',#1114);
#325=VERTEX_POINT('',#1115);
#326=VERTEX_POINT('',#1117);
#327=VERTEX_POINT('',#1119);
#328=VERTEX_POINT('',#1123);
#329=VERTEX_POINT('',#1125);
#330=VERTEX_POINT('',#1129);
#331=VERTEX_POINT('',#1131);
#332=VERTEX_POINT('',#1138);
#333=VERTEX_POINT('',#1139);
#334=VERTEX_POINT('',#1141);
#335=VERTEX_POINT('',#1143);
#336=VERTEX_POINT('',#1147);
#337=VERTEX_POINT('',#1149);
#338=VERTEX_POINT('',#1153);
#339=VERTEX_POINT('',#1155);
#340=VERTEX_POINT('',#1162);
#341=VERTEX_POINT('',#1163);
#342=VERTEX_POINT('',#1165);
#343=VERTEX_POINT('',#1167);
#344=VERTEX_POINT('',#1171);
#345=VERTEX_POINT('',#1173);
#346=VERTEX_POINT('',#1177);
#347=VERTEX_POINT('',#1179);
#348=VERTEX_POINT('',#1186);
#349=VERTEX_POINT('',#1188);
#350=VERTEX_POINT('',#1192);
#351=VERTEX_POINT('',#1194);
#352=VERTEX_POINT('',#1198);
#353=VERTEX_POINT('',#1200);
#354=VERTEX_POINT('',#1204);
#355=VERTEX_POINT('',#1206);
#356=VERTEX_POINT('',#1210);
#357=VERTEX_POINT('',#1212);
#358=VERTEX_POINT('',#1216);
#359=VERTEX_POINT('',#1218);
#360=VERTEX_POINT('',#1222);
#361=VERTEX_POINT('',#1224);
#362=VERTEX_POINT('',#1228);
#363=VERTEX_POINT('',#1229);
#364=VERTEX_POINT('',#1231);
#365=VERTEX_POINT('',#1233);
#366=VERTEX_POINT('',#1237);
#367=VERTEX_POINT('',#1239);
#368=VERTEX_POINT('',#1243);
#369=VERTEX_POINT('',#1245);
#370=VERTEX_POINT('',#1249);
#371=VERTEX_POINT('',#1251);
#372=VERTEX_POINT('',#1255);
#373=VERTEX_POINT('',#1257);
#374=VERTEX_POINT('',#1261);
#375=VERTEX_POINT('',#1263);
#376=VERTEX_POINT('',#1267);
#377=VERTEX_POINT('',#1269);
#378=VERTEX_POINT('',#1273);
#379=VERTEX_POINT('',#1275);
#380=VERTEX_POINT('',#1279);
#381=VERTEX_POINT('',#1281);
#382=VERTEX_POINT('',#1285);
#383=VERTEX_POINT('',#1287);
#384=VERTEX_POINT('',#1291);
#385=VERTEX_POINT('',#1293);
#386=EDGE_CURVE('',#316,#317,#214,.T.);
#387=EDGE_CURVE('',#316,#318,#215,.T.);
#388=EDGE_CURVE('',#319,#318,#216,.T.);
#389=EDGE_CURVE('',#317,#319,#217,.T.);
#390=EDGE_CURVE('',#317,#320,#37,.T.);
#391=EDGE_CURVE('',#321,#319,#38,.T.);
#392=EDGE_CURVE('',#320,#321,#218,.T.);
#393=EDGE_CURVE('',#322,#320,#219,.T.);
#394=EDGE_CURVE('',#323,#321,#220,.T.);
#395=EDGE_CURVE('',#322,#323,#221,.T.);
#396=EDGE_CURVE('',#322,#316,#39,.T.);
#397=EDGE_CURVE('',#318,#323,#40,.T.);
#398=EDGE_CURVE('',#324,#325,#222,.T.);
#399=EDGE_CURVE('',#324,#326,#223,.T.);
#400=EDGE_CURVE('',#327,#326,#224,.T.);
#401=EDGE_CURVE('',#325,#327,#225,.T.);
#402=EDGE_CURVE('',#325,#328,#41,.T.);
#403=EDGE_CURVE('',#329,#327,#42,.T.);
#404=EDGE_CURVE('',#328,#329,#226,.T.);
#405=EDGE_CURVE('',#330,#328,#227,.T.);
#406=EDGE_CURVE('',#331,#329,#228,.T.);
#407=EDGE_CURVE('',#330,#331,#229,.T.);
#408=EDGE_CURVE('',#330,#324,#43,.T.);
#409=EDGE_CURVE('',#326,#331,#44,.T.);
#410=EDGE_CURVE('',#332,#333,#230,.T.);
#411=EDGE_CURVE('',#332,#334,#231,.T.);
#412=EDGE_CURVE('',#335,#334,#232,.T.);
#413=EDGE_CURVE('',#333,#335,#233,.T.);
#414=EDGE_CURVE('',#333,#336,#45,.T.);
#415=EDGE_CURVE('',#337,#335,#46,.T.);
#416=EDGE_CURVE('',#336,#337,#234,.T.);
#417=EDGE_CURVE('',#338,#336,#235,.T.);
#418=EDGE_CURVE('',#339,#337,#236,.T.);
#419=EDGE_CURVE('',#338,#339,#237,.T.);
#420=EDGE_CURVE('',#338,#332,#47,.T.);
#421=EDGE_CURVE('',#334,#339,#48,.T.);
#422=EDGE_CURVE('',#340,#341,#238,.T.);
#423=EDGE_CURVE('',#340,#342,#239,.T.);
#424=EDGE_CURVE('',#343,#342,#240,.T.);
#425=EDGE_CURVE('',#341,#343,#241,.T.);
#426=EDGE_CURVE('',#341,#344,#49,.T.);
#427=EDGE_CURVE('',#345,#343,#50,.T.);
#428=EDGE_CURVE('',#344,#345,#242,.T.);
#429=EDGE_CURVE('',#346,#344,#243,.T.);
#430=EDGE_CURVE('',#347,#345,#244,.T.);
#431=EDGE_CURVE('',#346,#347,#245,.T.);
#432=EDGE_CURVE('',#346,#340,#51,.T.);
#433=EDGE_CURVE('',#342,#347,#52,.T.);
#434=EDGE_CURVE('',#348,#348,#53,.T.);
#435=EDGE_CURVE('',#348,#349,#246,.T.);
#436=EDGE_CURVE('',#349,#349,#54,.T.);
#437=EDGE_CURVE('',#350,#350,#55,.T.);
#438=EDGE_CURVE('',#350,#351,#247,.T.);
#439=EDGE_CURVE('',#351,#351,#56,.T.);
#440=EDGE_CURVE('',#352,#352,#57,.T.);
#441=EDGE_CURVE('',#352,#353,#248,.T.);
#442=EDGE_CURVE('',#353,#353,#58,.T.);
#443=EDGE_CURVE('',#354,#354,#59,.T.);
#444=EDGE_CURVE('',#354,#355,#249,.T.);
#445=EDGE_CURVE('',#355,#355,#60,.T.);
#446=EDGE_CURVE('',#356,#356,#61,.T.);
#447=EDGE_CURVE('',#356,#357,#250,.T.);
#448=EDGE_CURVE('',#357,#357,#62,.T.);
#449=EDGE_CURVE('',#358,#358,#63,.T.);
#450=EDGE_CURVE('',#358,#359,#251,.T.);
#451=EDGE_CURVE('',#359,#359,#64,.T.);
#452=EDGE_CURVE('',#360,#360,#65,.T.);
#453=EDGE_CURVE('',#360,#361,#252,.T.);
#454=EDGE_CURVE('',#361,#361,#66,.T.);
#455=EDGE_CURVE('',#362,#363,#67,.T.);
#456=EDGE_CURVE('',#362,#364,#253,.T.);
#457=EDGE_CURVE('',#365,#364,#68,.T.);
#458=EDGE_CURVE('',#363,#365,#254,.T.);
#459=EDGE_CURVE('',#366,#363,#69,.T.);
#460=EDGE_CURVE('',#367,#365,#70,.T.);
#461=EDGE_CURVE('',#366,#367,#255,.T.);
#462=EDGE_CURVE('',#366,#368,#71,.T.);
#463=EDGE_CURVE('',#369,#367,#72,.T.);
#464=EDGE_CURVE('',#368,#369,#256,.T.);
#465=EDGE_CURVE('',#370,#368,#73,.T.);
#466=EDGE_CURVE('',#371,#369,#74,.T.);
#467=EDGE_CURVE('',#370,#371,#257,.T.);
#468=EDGE_CURVE('',#370,#372,#75,.T.);
#469=EDGE_CURVE('',#373,#371,#76,.T.);
#470=EDGE_CURVE('',#372,#373,#258,.T.);
#471=EDGE_CURVE('',#374,#372,#77,.T.);
#472=EDGE_CURVE('',#375,#373,#78,.T.);
#473=EDGE_CURVE('',#374,#375,#259,.T.);
#474=EDGE_CURVE('',#374,#376,#79,.T.);
#475=EDGE_CURVE('',#377,#375,#80,.T.);
#476=EDGE_CURVE('',#376,#377,#260,.T.);
#477=EDGE_CURVE('',#378,#376,#81,.T.);
#478=EDGE_CURVE('',#379,#377,#82,.T.);
#479=EDGE_CURVE('',#378,#379,#261,.T.);
#480=EDGE_CURVE('',#378,#380,#83,.T.);
#481=EDGE_CURVE('',#381,#379,#84,.T.);
#482=EDGE_CURVE('',#380,#381,#262,.T.);
#483=EDGE_CURVE('',#382,#380,#85,.T.);
#484=EDGE_CURVE('',#383,#381,#86,.T.);
#485=EDGE_CURVE('',#382,#383,#263,.T.);
#486=EDGE_CURVE('',#382,#384,#87,.T.);
#487=EDGE_CURVE('',#385,#383,#88,.T.);
#488=EDGE_CURVE('',#384,#385,#264,.T.);
#489=EDGE_CURVE('',#362,#384,#89,.T.);
#490=EDGE_CURVE('',#364,#385,#90,.T.);
#491=ORIENTED_EDGE('',*,*,#386,.F.);
#492=ORIENTED_EDGE('',*,*,#387,.T.);
#493=ORIENTED_EDGE('',*,*,#388,.F.);
#494=ORIENTED_EDGE('',*,*,#389,.F.);
#495=ORIENTED_EDGE('',*,*,#390,.F.);
#496=ORIENTED_EDGE('',*,*,#389,.T.);
#497=ORIENTED_EDGE('',*,*,#391,.F.);
#498=ORIENTED_EDGE('',*,*,#392,.F.);
#499=ORIENTED_EDGE('',*,*,#393,.T.);
#500=ORIENTED_EDGE('',*,*,#392,.T.);
#501=ORIENTED_EDGE('',*,*,#394,.F.);
#502=ORIENTED_EDGE('',*,*,#395,.F.);
#503=ORIENTED_EDGE('',*,*,#396,.F.);
#504=ORIENTED_EDGE('',*,*,#395,.T.);
#505=ORIENTED_EDGE('',*,*,#397,.F.);
#506=ORIENTED_EDGE('',*,*,#387,.F.);
#507=ORIENTED_EDGE('',*,*,#398,.F.);
#508=ORIENTED_EDGE('',*,*,#399,.T.);
#509=ORIENTED_EDGE('',*,*,#400,.F.);
#510=ORIENTED_EDGE('',*,*,#401,.F.);
#511=ORIENTED_EDGE('',*,*,#402,.F.);
#512=ORIENTED_EDGE('',*,*,#401,.T.);
#513=ORIENTED_EDGE('',*,*,#403,.F.);
#514=ORIENTED_EDGE('',*,*,#404,.F.);
#515=ORIENTED_EDGE('',*,*,#405,.T.);
#516=ORIENTED_EDGE('',*,*,#404,.T.);
#517=ORIENTED_EDGE('',*,*,#406,.F.);
#518=ORIENTED_EDGE('',*,*,#407,.F.);
#519=ORIENTED_EDGE('',*,*,#408,.F.);
#520=ORIENTED_EDGE('',*,*,#407,.T.);
#521=ORIENTED_EDGE('',*,*,#409,.F.);
#522=ORIENTED_EDGE('',*,*,#399,.F.);
#523=ORIENTED_EDGE('',*,*,#410,.F.);
#524=ORIENTED_EDGE('',*,*,#411,.T.);
#525=ORIENTED_EDGE('',*,*,#412,.F.);
#526=ORIENTED_EDGE('',*,*,#413,.F.);
#527=ORIENTED_EDGE('',*,*,#414,.F.);
#528=ORIENTED_EDGE('',*,*,#413,.T.);
#529=ORIENTED_EDGE('',*,*,#415,.F.);
#530=ORIENTED_EDGE('',*,*,#416,.F.);
#531=ORIENTED_EDGE('',*,*,#417,.T.);
#532=ORIENTED_EDGE('',*,*,#416,.T.);
#533=ORIENTED_EDGE('',*,*,#418,.F.);
#534=ORIENTED_EDGE('',*,*,#419,.F.);
#535=ORIENTED_EDGE('',*,*,#420,.F.);
#536=ORIENTED_EDGE('',*,*,#419,.T.);
#537=ORIENTED_EDGE('',*,*,#421,.F.);
#538=ORIENTED_EDGE('',*,*,#411,.F.);
#539=ORIENTED_EDGE('',*,*,#422,.F.);
#540=ORIENTED_EDGE('',*,*,#423,.T.);
#541=ORIENTED_EDGE('',*,*,#424,.F.);
#542=ORIENTED_EDGE('',*,*,#425,.F.);
#543=ORIENTED_EDGE('',*,*,#426,.F.);
#544=ORIENTED_EDGE('',*,*,#425,.T.);
#545=ORIENTED_EDGE('',*,*,#427,.F.);
#546=ORIENTED_EDGE('',*,*,#428,.F.);
#547=ORIENTED_EDGE('',*,*,#429,.T.);
#548=ORIENTED_EDGE('',*,*,#428,.T.);
#549=ORIENTED_EDGE('',*,*,#430,.F.);
#550=ORIENTED_EDGE('',*,*,#431,.F.);
#551=ORIENTED_EDGE('',*,*,#432,.F.);
#552=ORIENTED_EDGE('',*,*,#431,.T.);
#553=ORIENTED_EDGE('',*,*,#433,.F.);
#554=ORIENTED_EDGE('',*,*,#423,.F.);
#555=ORIENTED_EDGE('',*,*,#434,.F.);
#556=ORIENTED_EDGE('',*,*,#435,.T.);
#557=ORIENTED_EDGE('',*,*,#436,.F.);
#558=ORIENTED_EDGE('',*,*,#435,.F.);
#559=ORIENTED_EDGE('',*,*,#437,.F.);
#560=ORIENTED_EDGE('',*,*,#438,.T.);
#561=ORIENTED_EDGE('',*,*,#439,.F.);
#562=ORIENTED_EDGE('',*,*,#438,.F.);
#563=ORIENTED_EDGE('',*,*,#440,.F.);
#564=ORIENTED_EDGE('',*,*,#441,.T.);
#565=ORIENTED_EDGE('',*,*,#442,.F.);
#566=ORIENTED_EDGE('',*,*,#441,.F.);
#567=ORIENTED_EDGE('',*,*,#443,.F.);
#568=ORIENTED_EDGE('',*,*,#444,.T.);
#569=ORIENTED_EDGE('',*,*,#445,.F.);
#570=ORIENTED_EDGE('',*,*,#444,.F.);
#571=ORIENTED_EDGE('',*,*,#446,.F.);
#572=ORIENTED_EDGE('',*,*,#447,.T.);
#573=ORIENTED_EDGE('',*,*,#448,.F.);
#574=ORIENTED_EDGE('',*,*,#447,.F.);
#575=ORIENTED_EDGE('',*,*,#449,.F.);
#576=ORIENTED_EDGE('',*,*,#450,.T.);
#577=ORIENTED_EDGE('',*,*,#451,.F.);
#578=ORIENTED_EDGE('',*,*,#450,.F.);
#579=ORIENTED_EDGE('',*,*,#452,.F.);
#580=ORIENTED_EDGE('',*,*,#453,.T.);
#581=ORIENTED_EDGE('',*,*,#454,.F.);
#582=ORIENTED_EDGE('',*,*,#453,.F.);
#583=ORIENTED_EDGE('',*,*,#455,.F.);
#584=ORIENTED_EDGE('',*,*,#456,.T.);
#585=ORIENTED_EDGE('',*,*,#457,.F.);
#586=ORIENTED_EDGE('',*,*,#458,.F.);
#587=ORIENTED_EDGE('',*,*,#459,.T.);
#588=ORIENTED_EDGE('',*,*,#458,.T.);
#589=ORIENTED_EDGE('',*,*,#460,.F.);
#590=ORIENTED_EDGE('',*,*,#461,.F.);
#591=ORIENTED_EDGE('',*,*,#462,.F.);
#592=ORIENTED_EDGE('',*,*,#461,.T.);
#593=ORIENTED_EDGE('',*,*,#463,.F.);
#594=ORIENTED_EDGE('',*,*,#464,.F.);
#595=ORIENTED_EDGE('',*,*,#465,.T.);
#596=ORIENTED_EDGE('',*,*,#464,.T.);
#597=ORIENTED_EDGE('',*,*,#466,.F.);
#598=ORIENTED_EDGE('',*,*,#467,.F.);
#599=ORIENTED_EDGE('',*,*,#468,.F.);
#600=ORIENTED_EDGE('',*,*,#467,.T.);
#601=ORIENTED_EDGE('',*,*,#469,.F.);
#602=ORIENTED_EDGE('',*,*,#470,.F.);
#603=ORIENTED_EDGE('',*,*,#471,.T.);
#604=ORIENTED_EDGE('',*,*,#470,.T.);
#605=ORIENTED_EDGE('',*,*,#472,.F.);
#606=ORIENTED_EDGE('',*,*,#473,.F.);
#607=ORIENTED_EDGE('',*,*,#474,.F.);
#608=ORIENTED_EDGE('',*,*,#473,.T.);
#609=ORIENTED_EDGE('',*,*,#475,.F.);
#610=ORIENTED_EDGE('',*,*,#476,.F.);
#611=ORIENTED_EDGE('',*,*,#477,.T.);
#612=ORIENTED_EDGE('',*,*,#476,.T.);
#613=ORIENTED_EDGE('',*,*,#478,.F.);
#614=ORIENTED_EDGE('',*,*,#479,.F.);
#615=ORIENTED_EDGE('',*,*,#480,.F.);
#616=ORIENTED_EDGE('',*,*,#479,.T.);
#617=ORIENTED_EDGE('',*,*,#481,.F.);
#618=ORIENTED_EDGE('',*,*,#482,.F.);
#619=ORIENTED_EDGE('',*,*,#483,.T.);
#620=ORIENTED_EDGE('',*,*,#482,.T.);
#621=ORIENTED_EDGE('',*,*,#484,.F.);
#622=ORIENTED_EDGE('',*,*,#485,.F.);
#623=ORIENTED_EDGE('',*,*,#486,.F.);
#624=ORIENTED_EDGE('',*,*,#485,.T.);
#625=ORIENTED_EDGE('',*,*,#487,.F.);
#626=ORIENTED_EDGE('',*,*,#488,.F.);
#627=ORIENTED_EDGE('',*,*,#489,.T.);
#628=ORIENTED_EDGE('',*,*,#488,.T.);
#629=ORIENTED_EDGE('',*,*,#490,.F.);
#630=ORIENTED_EDGE('',*,*,#456,.F.);
#631=ORIENTED_EDGE('',*,*,#490,.T.);
#632=ORIENTED_EDGE('',*,*,#487,.T.);
#633=ORIENTED_EDGE('',*,*,#484,.T.);
#634=ORIENTED_EDGE('',*,*,#481,.T.);
#635=ORIENTED_EDGE('',*,*,#478,.T.);
#636=ORIENTED_EDGE('',*,*,#475,.T.);
#637=ORIENTED_EDGE('',*,*,#472,.T.);
#638=ORIENTED_EDGE('',*,*,#469,.T.);
#639=ORIENTED_EDGE('',*,*,#466,.T.);
#640=ORIENTED_EDGE('',*,*,#463,.T.);
#641=ORIENTED_EDGE('',*,*,#460,.T.);
#642=ORIENTED_EDGE('',*,*,#457,.T.);
#643=ORIENTED_EDGE('',*,*,#452,.T.);
#644=ORIENTED_EDGE('',*,*,#449,.T.);
#645=ORIENTED_EDGE('',*,*,#446,.T.);
#646=ORIENTED_EDGE('',*,*,#443,.T.);
#647=ORIENTED_EDGE('',*,*,#440,.T.);
#648=ORIENTED_EDGE('',*,*,#437,.T.);
#649=ORIENTED_EDGE('',*,*,#434,.T.);
#650=ORIENTED_EDGE('',*,*,#433,.T.);
#651=ORIENTED_EDGE('',*,*,#430,.T.);
#652=ORIENTED_EDGE('',*,*,#427,.T.);
#653=ORIENTED_EDGE('',*,*,#424,.T.);
#654=ORIENTED_EDGE('',*,*,#421,.T.);
#655=ORIENTED_EDGE('',*,*,#418,.T.);
#656=ORIENTED_EDGE('',*,*,#415,.T.);
#657=ORIENTED_EDGE('',*,*,#412,.T.);
#658=ORIENTED_EDGE('',*,*,#409,.T.);
#659=ORIENTED_EDGE('',*,*,#406,.T.);
#660=ORIENTED_EDGE('',*,*,#403,.T.);
#661=ORIENTED_EDGE('',*,*,#400,.T.);
#662=ORIENTED_EDGE('',*,*,#397,.T.);
#663=ORIENTED_EDGE('',*,*,#394,.T.);
#664=ORIENTED_EDGE('',*,*,#391,.T.);
#665=ORIENTED_EDGE('',*,*,#388,.T.);
#666=ORIENTED_EDGE('',*,*,#489,.F.);
#667=ORIENTED_EDGE('',*,*,#455,.T.);
#668=ORIENTED_EDGE('',*,*,#459,.F.);
#669=ORIENTED_EDGE('',*,*,#462,.T.);
#670=ORIENTED_EDGE('',*,*,#465,.F.);
#671=ORIENTED_EDGE('',*,*,#468,.T.);
#672=ORIENTED_EDGE('',*,*,#471,.F.);
#673=ORIENTED_EDGE('',*,*,#474,.T.);
#674=ORIENTED_EDGE('',*,*,#477,.F.);
#675=ORIENTED_EDGE('',*,*,#480,.T.);
#676=ORIENTED_EDGE('',*,*,#483,.F.);
#677=ORIENTED_EDGE('',*,*,#486,.T.);
#678=ORIENTED_EDGE('',*,*,#454,.T.);
#679=ORIENTED_EDGE('',*,*,#451,.T.);
#680=ORIENTED_EDGE('',*,*,#448,.T.);
#681=ORIENTED_EDGE('',*,*,#445,.T.);
#682=ORIENTED_EDGE('',*,*,#442,.T.);
#683=ORIENTED_EDGE('',*,*,#439,.T.);
#684=ORIENTED_EDGE('',*,*,#436,.T.);
#685=ORIENTED_EDGE('',*,*,#432,.T.);
#686=ORIENTED_EDGE('',*,*,#422,.T.);
#687=ORIENTED_EDGE('',*,*,#426,.T.);
#688=ORIENTED_EDGE('',*,*,#429,.F.);
#689=ORIENTED_EDGE('',*,*,#420,.T.);
#690=ORIENTED_EDGE('',*,*,#410,.T.);
#691=ORIENTED_EDGE('',*,*,#414,.T.);
#692=ORIENTED_EDGE('',*,*,#417,.F.);
#693=ORIENTED_EDGE('',*,*,#408,.T.);
#694=ORIENTED_EDGE('',*,*,#398,.T.);
#695=ORIENTED_EDGE('',*,*,#402,.T.);
#696=ORIENTED_EDGE('',*,*,#405,.F.);
#697=ORIENTED_EDGE('',*,*,#396,.T.);
#698=ORIENTED_EDGE('',*,*,#386,.T.);
#699=ORIENTED_EDGE('',*,*,#390,.T.);
#700=ORIENTED_EDGE('',*,*,#393,.F.);
#701=PLANE('',#762);
#702=PLANE('',#766);
#703=PLANE('',#770);
#704=PLANE('',#774);
#705=PLANE('',#778);
#706=PLANE('',#782);
#707=PLANE('',#786);
#708=PLANE('',#790);
#709=PLANE('',#851);
#710=PLANE('',#852);
#711=ADVANCED_FACE('',(#118),#701,.T.);
#712=ADVANCED_FACE('',(#119),#91,.F.);
#713=ADVANCED_FACE('',(#120),#702,.T.);
#714=ADVANCED_FACE('',(#121),#92,.F.);
#715=ADVANCED_FACE('',(#122),#703,.T.);
#716=ADVANCED_FACE('',(#123),#93,.F.);
#717=ADVANCED_FACE('',(#124),#704,.T.);
#718=ADVANCED_FACE('',(#125),#94,.F.);
#719=ADVANCED_FACE('',(#126),#705,.T.);
#720=ADVANCED_FACE('',(#127),#95,.F.);
#721=ADVANCED_FACE('',(#128),#706,.T.);
#722=ADVANCED_FACE('',(#129),#96,.F.);
#723=ADVANCED_FACE('',(#130),#707,.T.);
#724=ADVANCED_FACE('',(#131),#97,.F.);
#725=ADVANCED_FACE('',(#132),#708,.T.);
#726=ADVANCED_FACE('',(#133),#98,.F.);
#727=ADVANCED_FACE('',(#134),#99,.F.);
#728=ADVANCED_FACE('',(#135),#100,.F.);
#729=ADVANCED_FACE('',(#136),#101,.F.);
#730=ADVANCED_FACE('',(#137),#102,.F.);
#731=ADVANCED_FACE('',(#138),#103,.F.);
#732=ADVANCED_FACE('',(#139),#104,.F.);
#733=ADVANCED_FACE('',(#140),#105,.F.);
#734=ADVANCED_FACE('',(#141),#106,.F.);
#735=ADVANCED_FACE('',(#142),#107,.T.);
#736=ADVANCED_FACE('',(#143),#108,.F.);
#737=ADVANCED_FACE('',(#144),#109,.T.);
#738=ADVANCED_FACE('',(#145),#110,.F.);
#739=ADVANCED_FACE('',(#146),#111,.T.);
#740=ADVANCED_FACE('',(#147),#112,.F.);
#741=ADVANCED_FACE('',(#148),#113,.T.);
#742=ADVANCED_FACE('',(#149),#114,.F.);
#743=ADVANCED_FACE('',(#150),#115,.T.);
#744=ADVANCED_FACE('',(#151),#116,.F.);
#745=ADVANCED_FACE('',(#152),#117,.T.);
#746=ADVANCED_FACE('',(#153,#15,#16,#17,#18,#19,#20,#21,#22,#23,#24,#25),
#709,.T.);
#747=ADVANCED_FACE('',(#154,#26,#27,#28,#29,#30,#31,#32,#33,#34,#35,#36),
#710,.F.);
#748=CLOSED_SHELL('',(#711,#712,#713,#714,#715,#716,#717,#718,#719,#720,
#721,#722,#723,#724,#725,#726,#727,#728,#729,#730,#731,#732,#733,#734,#735,
#736,#737,#738,#739,#740,#741,#742,#743,#744,#745,#746,#747));
#749=DERIVED_UNIT_ELEMENT(#751,1.);
#750=DERIVED_UNIT_ELEMENT(#1306,-3.);
#751=(
MASS_UNIT()
NAMED_UNIT(*)
SI_UNIT(.KILO.,.GRAM.)
);
#752=DERIVED_UNIT((#749,#750));
#753=MEASURE_REPRESENTATION_ITEM('density measure',
POSITIVE_RATIO_MEASURE(7850.),#752);
#754=PROPERTY_DEFINITION_REPRESENTATION(#759,#756);
#755=PROPERTY_DEFINITION_REPRESENTATION(#760,#757);
#756=REPRESENTATION('material name',(#758),#1303);
#757=REPRESENTATION('density',(#753),#1303);
#758=DESCRIPTIVE_REPRESENTATION_ITEM('\X2\94A2\X0\','\X2\94A2\X0\');
#759=PROPERTY_DEFINITION('material property','material name',#1313);
#760=PROPERTY_DEFINITION('material property','density of part',#1313);
#761=AXIS2_PLACEMENT_3D('',#1088,#853,#854);
#762=AXIS2_PLACEMENT_3D('',#1089,#855,#856);
#763=AXIS2_PLACEMENT_3D('',#1098,#861,#862);
#764=AXIS2_PLACEMENT_3D('',#1100,#863,#864);
#765=AXIS2_PLACEMENT_3D('',#1102,#865,#866);
#766=AXIS2_PLACEMENT_3D('',#1104,#868,#869);
#767=AXIS2_PLACEMENT_3D('',#1110,#873,#874);
#768=AXIS2_PLACEMENT_3D('',#1111,#875,#876);
#769=AXIS2_PLACEMENT_3D('',#1112,#877,#878);
#770=AXIS2_PLACEMENT_3D('',#1113,#879,#880);
#771=AXIS2_PLACEMENT_3D('',#1122,#885,#886);
#772=AXIS2_PLACEMENT_3D('',#1124,#887,#888);
#773=AXIS2_PLACEMENT_3D('',#1126,#889,#890);
#774=AXIS2_PLACEMENT_3D('',#1128,#892,#893);
#775=AXIS2_PLACEMENT_3D('',#1134,#897,#898);
#776=AXIS2_PLACEMENT_3D('',#1135,#899,#900);
#777=AXIS2_PLACEMENT_3D('',#1136,#901,#902);
#778=AXIS2_PLACEMENT_3D('',#1137,#903,#904);
#779=AXIS2_PLACEMENT_3D('',#1146,#909,#910);
#780=AXIS2_PLACEMENT_3D('',#1148,#911,#912);
#781=AXIS2_PLACEMENT_3D('',#1150,#913,#914);
#782=AXIS2_PLACEMENT_3D('',#1152,#916,#917);
#783=AXIS2_PLACEMENT_3D('',#1158,#921,#922);
#784=AXIS2_PLACEMENT_3D('',#1159,#923,#924);
#785=AXIS2_PLACEMENT_3D('',#1160,#925,#926);
#786=AXIS2_PLACEMENT_3D('',#1161,#927,#928);
#787=AXIS2_PLACEMENT_3D('',#1170,#933,#934);
#788=AXIS2_PLACEMENT_3D('',#1172,#935,#936);
#789=AXIS2_PLACEMENT_3D('',#1174,#937,#938);
#790=AXIS2_PLACEMENT_3D('',#1176,#940,#941);
#791=AXIS2_PLACEMENT_3D('',#1182,#945,#946);
#792=AXIS2_PLACEMENT_3D('',#1183,#947,#948);
#793=AXIS2_PLACEMENT_3D('',#1184,#949,#950);
#794=AXIS2_PLACEMENT_3D('',#1185,#951,#952);
#795=AXIS2_PLACEMENT_3D('',#1187,#953,#954);
#796=AXIS2_PLACEMENT_3D('',#1190,#956,#957);
#797=AXIS2_PLACEMENT_3D('',#1191,#958,#959);
#798=AXIS2_PLACEMENT_3D('',#1193,#960,#961);
#799=AXIS2_PLACEMENT_3D('',#1196,#963,#964);
#800=AXIS2_PLACEMENT_3D('',#1197,#965,#966);
#801=AXIS2_PLACEMENT_3D('',#1199,#967,#968);
#802=AXIS2_PLACEMENT_3D('',#1202,#970,#971);
#803=AXIS2_PLACEMENT_3D('',#1203,#972,#973);
#804=AXIS2_PLACEMENT_3D('',#1205,#974,#975);
#805=AXIS2_PLACEMENT_3D('',#1208,#977,#978);
#806=AXIS2_PLACEMENT_3D('',#1209,#979,#980);
#807=AXIS2_PLACEMENT_3D('',#1211,#981,#982);
#808=AXIS2_PLACEMENT_3D('',#1214,#984,#985);
#809=AXIS2_PLACEMENT_3D('',#1215,#986,#987);
#810=AXIS2_PLACEMENT_3D('',#1217,#988,#989);
#811=AXIS2_PLACEMENT_3D('',#1220,#991,#992);
#812=AXIS2_PLACEMENT_3D('',#1221,#993,#994);
#813=AXIS2_PLACEMENT_3D('',#1223,#995,#996);
#814=AXIS2_PLACEMENT_3D('',#1226,#998,#999);
#815=AXIS2_PLACEMENT_3D('',#1227,#1000,#1001);
#816=AXIS2_PLACEMENT_3D('',#1230,#1002,#1003);
#817=AXIS2_PLACEMENT_3D('',#1234,#1005,#1006);
#818=AXIS2_PLACEMENT_3D('',#1236,#1008,#1009);
#819=AXIS2_PLACEMENT_3D('',#1238,#1010,#1011);
#820=AXIS2_PLACEMENT_3D('',#1240,#1012,#1013);
#821=AXIS2_PLACEMENT_3D('',#1242,#1015,#1016);
#822=AXIS2_PLACEMENT_3D('',#1244,#1017,#1018);
#823=AXIS2_PLACEMENT_3D('',#1246,#1019,#1020);
#824=AXIS2_PLACEMENT_3D('',#1248,#1022,#1023);
#825=AXIS2_PLACEMENT_3D('',#1250,#1024,#1025);
#826=AXIS2_PLACEMENT_3D('',#1252,#1026,#1027);
#827=AXIS2_PLACEMENT_3D('',#1254,#1029,#1030);
#828=AXIS2_PLACEMENT_3D('',#1256,#1031,#1032);
#829=AXIS2_PLACEMENT_3D('',#1258,#1033,#1034);
#830=AXIS2_PLACEMENT_3D('',#1260,#1036,#1037);
#831=AXIS2_PLACEMENT_3D('',#1262,#1038,#1039);
#832=AXIS2_PLACEMENT_3D('',#1264,#1040,#1041);
#833=AXIS2_PLACEMENT_3D('',#1266,#1043,#1044);
#834=AXIS2_PLACEMENT_3D('',#1268,#1045,#1046);
#835=AXIS2_PLACEMENT_3D('',#1270,#1047,#1048);
#836=AXIS2_PLACEMENT_3D('',#1272,#1050,#1051);
#837=AXIS2_PLACEMENT_3D('',#1274,#1052,#1053);
#838=AXIS2_PLACEMENT_3D('',#1276,#1054,#1055);
#839=AXIS2_PLACEMENT_3D('',#1278,#1057,#1058);
#840=AXIS2_PLACEMENT_3D('',#1280,#1059,#1060);
#841=AXIS2_PLACEMENT_3D('',#1282,#1061,#1062);
#842=AXIS2_PLACEMENT_3D('',#1284,#1064,#1065);
#843=AXIS2_PLACEMENT_3D('',#1286,#1066,#1067);
#844=AXIS2_PLACEMENT_3D('',#1288,#1068,#1069);
#845=AXIS2_PLACEMENT_3D('',#1290,#1071,#1072);
#846=AXIS2_PLACEMENT_3D('',#1292,#1073,#1074);
#847=AXIS2_PLACEMENT_3D('',#1294,#1075,#1076);
#848=AXIS2_PLACEMENT_3D('',#1296,#1078,#1079);
#849=AXIS2_PLACEMENT_3D('',#1297,#1080,#1081);
#850=AXIS2_PLACEMENT_3D('',#1298,#1082,#1083);
#851=AXIS2_PLACEMENT_3D('',#1299,#1084,#1085);
#852=AXIS2_PLACEMENT_3D('',#1300,#1086,#1087);
#853=DIRECTION('axis',(0.,0.,1.));
#854=DIRECTION('refdir',(1.,0.,0.));
#855=DIRECTION('center_axis',(0.,-1.,0.));
#856=DIRECTION('ref_axis',(1.,0.,0.));
#857=DIRECTION('',(-1.,0.,0.));
#858=DIRECTION('',(0.,0.,1.));
#859=DIRECTION('',(1.,0.,0.));
#860=DIRECTION('',(0.,0.,1.));
#861=DIRECTION('center_axis',(0.,0.,1.));
#862=DIRECTION('ref_axis',(-7.16272919113003E-16,1.,0.));
#863=DIRECTION('center_axis',(0.,0.,1.));
#864=DIRECTION('ref_axis',(-7.16272919113003E-16,1.,0.));
#865=DIRECTION('center_axis',(0.,0.,-1.));
#866=DIRECTION('ref_axis',(-7.16272919113003E-16,1.,0.));
#867=DIRECTION('',(0.,0.,1.));
#868=DIRECTION('center_axis',(0.,1.,0.));
#869=DIRECTION('ref_axis',(-1.,0.,0.));
#870=DIRECTION('',(-1.,0.,0.));
#871=DIRECTION('',(-1.,0.,0.));
#872=DIRECTION('',(0.,0.,1.));
#873=DIRECTION('center_axis',(0.,0.,1.));
#874=DIRECTION('ref_axis',(1.14603667058081E-14,-1.,0.));
#875=DIRECTION('center_axis',(0.,0.,1.));
#876=DIRECTION('ref_axis',(1.14603667058081E-14,-1.,0.));
#877=DIRECTION('center_axis',(0.,0.,-1.));
#878=DIRECTION('ref_axis',(1.14603667058081E-14,-1.,0.));
#879=DIRECTION('center_axis',(1.,5.55111512312579E-16,0.));
#880=DIRECTION('ref_axis',(-5.55111512312579E-16,1.,0.));
#881=DIRECTION('',(5.55111512312579E-16,-1.,0.));
#882=DIRECTION('',(0.,0.,1.));
#883=DIRECTION('',(-5.55111512312579E-16,1.,0.));
#884=DIRECTION('',(0.,0.,1.));
#885=DIRECTION('center_axis',(0.,0.,1.));
#886=DIRECTION('ref_axis',(-1.,1.43254583822601E-15,0.));
#887=DIRECTION('center_axis',(0.,0.,1.));
#888=DIRECTION('ref_axis',(-1.,1.43254583822601E-15,0.));
#889=DIRECTION('center_axis',(0.,0.,-1.));
#890=DIRECTION('ref_axis',(-1.,1.43254583822601E-15,0.));
#891=DIRECTION('',(0.,0.,1.));
#892=DIRECTION('center_axis',(-1.,5.55111512312579E-16,0.));
#893=DIRECTION('ref_axis',(-5.55111512312579E-16,-1.,0.));
#894=DIRECTION('',(-5.55111512312579E-16,-1.,0.));
#895=DIRECTION('',(-5.55111512312579E-16,-1.,0.));
#896=DIRECTION('',(0.,0.,1.));
#897=DIRECTION('center_axis',(0.,0.,1.));
#898=DIRECTION('ref_axis',(1.,0.,0.));
#899=DIRECTION('center_axis',(0.,0.,1.));
#900=DIRECTION('ref_axis',(1.,0.,0.));
#901=DIRECTION('center_axis',(0.,0.,-1.));
#902=DIRECTION('ref_axis',(1.,0.,0.));
#903=DIRECTION('center_axis',(0.,-1.,0.));
#904=DIRECTION('ref_axis',(1.,0.,0.));
#905=DIRECTION('',(-1.,0.,0.));
#906=DIRECTION('',(0.,0.,1.));
#907=DIRECTION('',(1.,0.,0.));
#908=DIRECTION('',(0.,0.,1.));
#909=DIRECTION('center_axis',(0.,0.,1.));
#910=DIRECTION('ref_axis',(0.,1.,0.));
#911=DIRECTION('center_axis',(0.,0.,1.));
#912=DIRECTION('ref_axis',(0.,1.,0.));
#913=DIRECTION('center_axis',(0.,0.,-1.));
#914=DIRECTION('ref_axis',(0.,1.,0.));
#915=DIRECTION('',(0.,0.,1.));
#916=DIRECTION('center_axis',(0.,1.,0.));
#917=DIRECTION('ref_axis',(-1.,0.,0.));
#918=DIRECTION('',(-1.,0.,0.));
#919=DIRECTION('',(-1.,0.,0.));
#920=DIRECTION('',(0.,0.,1.));
#921=DIRECTION('center_axis',(0.,0.,1.));
#922=DIRECTION('ref_axis',(1.14603667058081E-14,-1.,0.));
#923=DIRECTION('center_axis',(0.,0.,1.));
#924=DIRECTION('ref_axis',(1.14603667058081E-14,-1.,0.));
#925=DIRECTION('center_axis',(0.,0.,-1.));
#926=DIRECTION('ref_axis',(1.14603667058081E-14,-1.,0.));
#927=DIRECTION('center_axis',(1.,0.,0.));
#928=DIRECTION('ref_axis',(0.,1.,0.));
#929=DIRECTION('',(0.,-1.,0.));
#930=DIRECTION('',(0.,0.,1.));
#931=DIRECTION('',(0.,1.,0.));
#932=DIRECTION('',(0.,0.,1.));
#933=DIRECTION('center_axis',(0.,0.,1.));
#934=DIRECTION('ref_axis',(-1.,0.,0.));
#935=DIRECTION('center_axis',(0.,0.,1.));
#936=DIRECTION('ref_axis',(-1.,0.,0.));
#937=DIRECTION('center_axis',(0.,0.,-1.));
#938=DIRECTION('ref_axis',(-1.,0.,0.));
#939=DIRECTION('',(0.,0.,1.));
#940=DIRECTION('center_axis',(-1.,0.,0.));
#941=DIRECTION('ref_axis',(0.,-1.,0.));
#942=DIRECTION('',(0.,-1.,0.));
#943=DIRECTION('',(0.,-1.,0.));
#944=DIRECTION('',(0.,0.,1.));
#945=DIRECTION('center_axis',(0.,0.,1.));
#946=DIRECTION('ref_axis',(1.,1.36091854631471E-14,0.));
#947=DIRECTION('center_axis',(0.,0.,1.));
#948=DIRECTION('ref_axis',(1.,1.36091854631471E-14,0.));
#949=DIRECTION('center_axis',(0.,0.,-1.));
#950=DIRECTION('ref_axis',(1.,1.36091854631471E-14,0.));
#951=DIRECTION('center_axis',(0.,0.,1.));
#952=DIRECTION('ref_axis',(1.,0.,0.));
#953=DIRECTION('center_axis',(0.,0.,-1.));
#954=DIRECTION('ref_axis',(1.,0.,0.));
#955=DIRECTION('',(0.,0.,-1.));
#956=DIRECTION('center_axis',(0.,0.,1.));
#957=DIRECTION('ref_axis',(1.,0.,0.));
#958=DIRECTION('center_axis',(0.,0.,1.));
#959=DIRECTION('ref_axis',(1.,0.,0.));
#960=DIRECTION('center_axis',(0.,0.,-1.));
#961=DIRECTION('ref_axis',(1.,0.,0.));
#962=DIRECTION('',(0.,0.,-1.));
#963=DIRECTION('center_axis',(0.,0.,1.));
#964=DIRECTION('ref_axis',(1.,0.,0.));
#965=DIRECTION('center_axis',(0.,0.,1.));
#966=DIRECTION('ref_axis',(1.,0.,0.));
#967=DIRECTION('center_axis',(0.,0.,-1.));
#968=DIRECTION('ref_axis',(1.,0.,0.));
#969=DIRECTION('',(0.,0.,-1.));
#970=DIRECTION('center_axis',(0.,0.,1.));
#971=DIRECTION('ref_axis',(1.,0.,0.));
#972=DIRECTION('center_axis',(0.,0.,1.));
#973=DIRECTION('ref_axis',(1.,0.,0.));
#974=DIRECTION('center_axis',(0.,0.,-1.));
#975=DIRECTION('ref_axis',(1.,0.,0.));
#976=DIRECTION('',(0.,0.,-1.));
#977=DIRECTION('center_axis',(0.,0.,1.));
#978=DIRECTION('ref_axis',(1.,0.,0.));
#979=DIRECTION('center_axis',(0.,0.,1.));
#980=DIRECTION('ref_axis',(1.,0.,0.));
#981=DIRECTION('center_axis',(0.,0.,-1.));
#982=DIRECTION('ref_axis',(1.,0.,0.));
#983=DIRECTION('',(0.,0.,-1.));
#984=DIRECTION('center_axis',(0.,0.,1.));
#985=DIRECTION('ref_axis',(1.,0.,0.));
#986=DIRECTION('center_axis',(0.,0.,1.));
#987=DIRECTION('ref_axis',(1.,0.,0.));
#988=DIRECTION('center_axis',(0.,0.,-1.));
#989=DIRECTION('ref_axis',(1.,0.,0.));
#990=DIRECTION('',(0.,0.,-1.));
#991=DIRECTION('center_axis',(0.,0.,1.));
#992=DIRECTION('ref_axis',(1.,0.,0.));
#993=DIRECTION('center_axis',(0.,0.,1.));
#994=DIRECTION('ref_axis',(1.,0.,0.));
#995=DIRECTION('center_axis',(0.,0.,-1.));
#996=DIRECTION('ref_axis',(1.,0.,0.));
#997=DIRECTION('',(0.,0.,-1.));
#998=DIRECTION('center_axis',(0.,0.,1.));
#999=DIRECTION('ref_axis',(1.,0.,0.));
#1000=DIRECTION('center_axis',(0.,0.,1.));
#1001=DIRECTION('ref_axis',(-0.898560619843987,0.438849418896266,0.));
#1002=DIRECTION('center_axis',(0.,0.,1.));
#1003=DIRECTION('ref_axis',(-0.898560619843987,0.438849418896266,0.));
#1004=DIRECTION('',(0.,0.,1.));
#1005=DIRECTION('center_axis',(0.,0.,-1.));
#1006=DIRECTION('ref_axis',(-0.898560619843987,0.438849418896266,0.));
#1007=DIRECTION('',(0.,0.,1.));
#1008=DIRECTION('center_axis',(0.,0.,1.));
#1009=DIRECTION('ref_axis',(0.0692255647218085,-0.997601033073316,0.));
#1010=DIRECTION('center_axis',(0.,0.,1.));
#1011=DIRECTION('ref_axis',(0.0692255647218085,-0.997601033073316,0.));
#1012=DIRECTION('center_axis',(0.,0.,1.));
#1013=DIRECTION('ref_axis',(0.0692255647218085,-0.997601033073316,0.));
#1014=DIRECTION('',(0.,0.,1.));
#1015=DIRECTION('center_axis',(0.,0.,1.));
#1016=DIRECTION('ref_axis',(-0.069225564721789,0.997601033073317,0.));
#1017=DIRECTION('center_axis',(0.,0.,1.));
#1018=DIRECTION('ref_axis',(-0.069225564721789,0.997601033073317,0.));
#1019=DIRECTION('center_axis',(0.,0.,-1.));
#1020=DIRECTION('ref_axis',(-0.069225564721789,0.997601033073317,0.));
#1021=DIRECTION('',(0.,0.,1.));
#1022=DIRECTION('center_axis',(0.,0.,1.));
#1023=DIRECTION('ref_axis',(-0.829335055122186,-0.558751614177069,0.));
#1024=DIRECTION('center_axis',(0.,0.,1.));
#1025=DIRECTION('ref_axis',(-0.829335055122186,-0.558751614177069,0.));
#1026=DIRECTION('center_axis',(0.,0.,1.));
#1027=DIRECTION('ref_axis',(-0.829335055122186,-0.558751614177069,0.));
#1028=DIRECTION('',(0.,0.,1.));
#1029=DIRECTION('center_axis',(0.,0.,1.));
#1030=DIRECTION('ref_axis',(0.829335055122198,0.558751614177052,0.));
#1031=DIRECTION('center_axis',(0.,0.,1.));
#1032=DIRECTION('ref_axis',(0.829335055122198,0.558751614177052,0.));
#1033=DIRECTION('center_axis',(0.,0.,-1.));
#1034=DIRECTION('ref_axis',(0.829335055122198,0.558751614177052,0.));
#1035=DIRECTION('',(0.,0.,1.));
#1036=DIRECTION('center_axis',(0.,0.,1.));
#1037=DIRECTION('ref_axis',(-0.89856061984399,0.438849418896258,0.));
#1038=DIRECTION('center_axis',(0.,0.,1.));
#1039=DIRECTION('ref_axis',(-0.89856061984399,0.438849418896258,0.));
#1040=DIRECTION('center_axis',(0.,0.,1.));
#1041=DIRECTION('ref_axis',(-0.89856061984399,0.438849418896258,0.));
#1042=DIRECTION('',(0.,0.,1.));
#1043=DIRECTION('center_axis',(0.,0.,1.));
#1044=DIRECTION('ref_axis',(0.89856061984399,-0.438849418896259,0.));
#1045=DIRECTION('center_axis',(0.,0.,1.));
#1046=DIRECTION('ref_axis',(0.89856061984399,-0.438849418896259,0.));
#1047=DIRECTION('center_axis',(0.,0.,-1.));
#1048=DIRECTION('ref_axis',(0.89856061984399,-0.438849418896259,0.));
#1049=DIRECTION('',(0.,0.,1.));
#1050=DIRECTION('center_axis',(0.,0.,1.));
#1051=DIRECTION('ref_axis',(-0.0692255647217956,0.997601033073317,0.));
#1052=DIRECTION('center_axis',(0.,0.,1.));
#1053=DIRECTION('ref_axis',(-0.0692255647217956,0.997601033073317,0.));
#1054=DIRECTION('center_axis',(0.,0.,1.));
#1055=DIRECTION('ref_axis',(-0.0692255647217956,0.997601033073317,0.));
#1056=DIRECTION('',(0.,0.,1.));
#1057=DIRECTION('center_axis',(0.,0.,1.));
#1058=DIRECTION('ref_axis',(0.0692255647217953,-0.997601033073317,0.));
#1059=DIRECTION('center_axis',(0.,0.,1.));
#1060=DIRECTION('ref_axis',(0.0692255647217953,-0.997601033073317,0.));
#1061=DIRECTION('center_axis',(0.,0.,-1.));
#1062=DIRECTION('ref_axis',(0.0692255647217953,-0.997601033073317,0.));
#1063=DIRECTION('',(0.,0.,1.));
#1064=DIRECTION('center_axis',(0.,0.,1.));
#1065=DIRECTION('ref_axis',(0.829335055122195,0.558751614177056,0.));
#1066=DIRECTION('center_axis',(0.,0.,1.));
#1067=DIRECTION('ref_axis',(0.829335055122195,0.558751614177056,0.));
#1068=DIRECTION('center_axis',(0.,0.,1.));
#1069=DIRECTION('ref_axis',(0.829335055122195,0.558751614177056,0.));
#1070=DIRECTION('',(0.,0.,1.));
#1071=DIRECTION('center_axis',(0.,0.,1.));
#1072=DIRECTION('ref_axis',(-0.829335055122194,-0.558751614177057,0.));
#1073=DIRECTION('center_axis',(0.,0.,1.));
#1074=DIRECTION('ref_axis',(-0.829335055122194,-0.558751614177057,0.));
#1075=DIRECTION('center_axis',(0.,0.,-1.));
#1076=DIRECTION('ref_axis',(-0.829335055122194,-0.558751614177057,0.));
#1077=DIRECTION('',(0.,0.,1.));
#1078=DIRECTION('center_axis',(0.,0.,1.));
#1079=DIRECTION('ref_axis',(0.898560619843996,-0.438849418896248,0.));
#1080=DIRECTION('center_axis',(0.,0.,1.));
#1081=DIRECTION('ref_axis',(0.898560619843996,-0.438849418896248,0.));
#1082=DIRECTION('center_axis',(0.,0.,1.));
#1083=DIRECTION('ref_axis',(0.898560619843996,-0.438849418896248,0.));
#1084=DIRECTION('center_axis',(0.,0.,1.));
#1085=DIRECTION('ref_axis',(1.,0.,0.));
#1086=DIRECTION('center_axis',(0.,0.,1.));
#1087=DIRECTION('ref_axis',(1.,0.,0.));
#1088=CARTESIAN_POINT('',(0.,0.,0.));
#1089=CARTESIAN_POINT('Origin',(-17.15,3.1,0.));
#1090=CARTESIAN_POINT('',(-14.15,3.1,0.));
#1091=CARTESIAN_POINT('',(-17.15,3.1,0.));
#1092=CARTESIAN_POINT('',(-14.15,3.1,0.));
#1093=CARTESIAN_POINT('',(-14.15,3.1,8.));
#1094=CARTESIAN_POINT('',(-14.15,3.1,0.));
#1095=CARTESIAN_POINT('',(-17.15,3.1,8.));
#1096=CARTESIAN_POINT('',(-14.15,3.1,8.));
#1097=CARTESIAN_POINT('',(-17.15,3.1,0.));
#1098=CARTESIAN_POINT('Origin',(-17.15,0.,0.));
#1099=CARTESIAN_POINT('',(-17.15,-3.1,0.));
#1100=CARTESIAN_POINT('Origin',(-17.15,0.,0.));
#1101=CARTESIAN_POINT('',(-17.15,-3.1,8.));
#1102=CARTESIAN_POINT('Origin',(-17.15,0.,8.));
#1103=CARTESIAN_POINT('',(-17.15,-3.1,0.));
#1104=CARTESIAN_POINT('Origin',(-14.15,-3.1,0.));
#1105=CARTESIAN_POINT('',(-14.15,-3.1,0.));
#1106=CARTESIAN_POINT('',(-14.15,-3.1,0.));
#1107=CARTESIAN_POINT('',(-14.15,-3.1,8.));
#1108=CARTESIAN_POINT('',(-14.15,-3.1,8.));
#1109=CARTESIAN_POINT('',(-14.15,-3.1,0.));
#1110=CARTESIAN_POINT('Origin',(-14.15,0.,0.));
#1111=CARTESIAN_POINT('Origin',(-14.15,0.,0.));
#1112=CARTESIAN_POINT('Origin',(-14.15,0.,8.));
#1113=CARTESIAN_POINT('Origin',(-3.1,-17.15,0.));
#1114=CARTESIAN_POINT('',(-3.1,-14.15,0.));
#1115=CARTESIAN_POINT('',(-3.1,-17.15,0.));
#1116=CARTESIAN_POINT('',(-3.1,-14.15,0.));
#1117=CARTESIAN_POINT('',(-3.1,-14.15,8.));
#1118=CARTESIAN_POINT('',(-3.1,-14.15,0.));
#1119=CARTESIAN_POINT('',(-3.1,-17.15,8.));
#1120=CARTESIAN_POINT('',(-3.1,-14.15,8.));
#1121=CARTESIAN_POINT('',(-3.1,-17.15,0.));
#1122=CARTESIAN_POINT('Origin',(0.,-17.15,0.));
#1123=CARTESIAN_POINT('',(3.1,-17.15,0.));
#1124=CARTESIAN_POINT('Origin',(0.,-17.15,0.));
#1125=CARTESIAN_POINT('',(3.1,-17.15,8.));
#1126=CARTESIAN_POINT('Origin',(0.,-17.15,8.));
#1127=CARTESIAN_POINT('',(3.1,-17.15,0.));
#1128=CARTESIAN_POINT('Origin',(3.1,-14.15,0.));
#1129=CARTESIAN_POINT('',(3.1,-14.15,0.));
#1130=CARTESIAN_POINT('',(3.1,-14.15,0.));
#1131=CARTESIAN_POINT('',(3.1,-14.15,8.));
#1132=CARTESIAN_POINT('',(3.1,-14.15,8.));
#1133=CARTESIAN_POINT('',(3.1,-14.15,0.));
#1134=CARTESIAN_POINT('Origin',(0.,-14.15,0.));
#1135=CARTESIAN_POINT('Origin',(0.,-14.15,0.));
#1136=CARTESIAN_POINT('Origin',(0.,-14.15,8.));
#1137=CARTESIAN_POINT('Origin',(14.15,3.1,0.));
#1138=CARTESIAN_POINT('',(17.15,3.1,0.));
#1139=CARTESIAN_POINT('',(14.15,3.1,0.));
#1140=CARTESIAN_POINT('',(17.15,3.1,0.));
#1141=CARTESIAN_POINT('',(17.15,3.1,8.));
#1142=CARTESIAN_POINT('',(17.15,3.1,0.));
#1143=CARTESIAN_POINT('',(14.15,3.1,8.));
#1144=CARTESIAN_POINT('',(17.15,3.1,8.));
#1145=CARTESIAN_POINT('',(14.15,3.1,0.));
#1146=CARTESIAN_POINT('Origin',(14.15,0.,0.));
#1147=CARTESIAN_POINT('',(14.15,-3.1,0.));
#1148=CARTESIAN_POINT('Origin',(14.15,0.,0.));
#1149=CARTESIAN_POINT('',(14.15,-3.1,8.));
#1150=CARTESIAN_POINT('Origin',(14.15,0.,8.));
#1151=CARTESIAN_POINT('',(14.15,-3.1,0.));
#1152=CARTESIAN_POINT('Origin',(17.15,-3.1,0.));
#1153=CARTESIAN_POINT('',(17.15,-3.1,0.));
#1154=CARTESIAN_POINT('',(17.15,-3.1,0.));
#1155=CARTESIAN_POINT('',(17.15,-3.1,8.));
#1156=CARTESIAN_POINT('',(17.15,-3.1,8.));
#1157=CARTESIAN_POINT('',(17.15,-3.1,0.));
#1158=CARTESIAN_POINT('Origin',(17.15,0.,0.));
#1159=CARTESIAN_POINT('Origin',(17.15,0.,0.));
#1160=CARTESIAN_POINT('Origin',(17.15,0.,8.));
#1161=CARTESIAN_POINT('Origin',(-3.1,14.15,0.));
#1162=CARTESIAN_POINT('',(-3.1,17.15,0.));
#1163=CARTESIAN_POINT('',(-3.1,14.15,0.));
#1164=CARTESIAN_POINT('',(-3.1,17.15,0.));
#1165=CARTESIAN_POINT('',(-3.1,17.15,8.));
#1166=CARTESIAN_POINT('',(-3.1,17.15,0.));
#1167=CARTESIAN_POINT('',(-3.1,14.15,8.));
#1168=CARTESIAN_POINT('',(-3.1,17.15,8.));
#1169=CARTESIAN_POINT('',(-3.1,14.15,0.));
#1170=CARTESIAN_POINT('Origin',(0.,14.15,0.));
#1171=CARTESIAN_POINT('',(3.1,14.15,0.));
#1172=CARTESIAN_POINT('Origin',(0.,14.15,0.));
#1173=CARTESIAN_POINT('',(3.1,14.15,8.));
#1174=CARTESIAN_POINT('Origin',(0.,14.15,8.));
#1175=CARTESIAN_POINT('',(3.1,14.15,0.));
#1176=CARTESIAN_POINT('Origin',(3.1,17.15,0.));
#1177=CARTESIAN_POINT('',(3.1,17.15,0.));
#1178=CARTESIAN_POINT('',(3.1,17.15,0.));
#1179=CARTESIAN_POINT('',(3.1,17.15,8.));
#1180=CARTESIAN_POINT('',(3.1,17.15,8.));
#1181=CARTESIAN_POINT('',(3.1,17.15,0.));
#1182=CARTESIAN_POINT('Origin',(0.,17.15,0.));
#1183=CARTESIAN_POINT('Origin',(0.,17.15,0.));
#1184=CARTESIAN_POINT('Origin',(0.,17.15,8.));
#1185=CARTESIAN_POINT('Origin',(35.,1.57032194594279E-16,0.));
#1186=CARTESIAN_POINT('',(32.45,0.,8.));
#1187=CARTESIAN_POINT('Origin',(35.,1.57032194594279E-16,8.));
#1188=CARTESIAN_POINT('',(32.45,-1.55252739188295E-16,0.));
#1189=CARTESIAN_POINT('',(32.45,-1.55252739188295E-16,0.));
#1190=CARTESIAN_POINT('Origin',(35.,1.57032194594279E-16,0.));
#1191=CARTESIAN_POINT('Origin',(17.5,-30.3108891324554,0.));
#1192=CARTESIAN_POINT('',(14.95,-30.3108891324554,8.));
#1193=CARTESIAN_POINT('Origin',(17.5,-30.3108891324554,8.));
#1194=CARTESIAN_POINT('',(14.95,-30.3108891324554,0.));
#1195=CARTESIAN_POINT('',(14.95,-30.3108891324554,0.));
#1196=CARTESIAN_POINT('Origin',(17.5,-30.3108891324554,0.));
#1197=CARTESIAN_POINT('Origin',(-17.5,-30.3108891324554,0.));
#1198=CARTESIAN_POINT('',(-20.05,-30.3108891324554,8.));
#1199=CARTESIAN_POINT('Origin',(-17.5,-30.3108891324554,8.));
#1200=CARTESIAN_POINT('',(-20.05,-30.3108891324554,0.));
#1201=CARTESIAN_POINT('',(-20.05,-30.3108891324554,0.));
#1202=CARTESIAN_POINT('Origin',(-17.5,-30.3108891324554,0.));
#1203=CARTESIAN_POINT('Origin',(-35.,7.75980123052212E-15,0.));
#1204=CARTESIAN_POINT('',(-37.55,8.88178419700125E-15,8.));
#1205=CARTESIAN_POINT('Origin',(-35.,7.75980123052212E-15,8.));
#1206=CARTESIAN_POINT('',(-37.55,7.44751629673955E-15,0.));
#1207=CARTESIAN_POINT('',(-37.55,7.44751629673955E-15,0.));
#1208=CARTESIAN_POINT('Origin',(-35.,7.75980123052212E-15,0.));
#1209=CARTESIAN_POINT('Origin',(-17.5,30.3108891324554,0.));
#1210=CARTESIAN_POINT('',(-20.05,30.3108891324554,8.));
#1211=CARTESIAN_POINT('Origin',(-17.5,30.3108891324554,8.));
#1212=CARTESIAN_POINT('',(-20.05,30.3108891324554,0.));
#1213=CARTESIAN_POINT('',(-20.05,30.3108891324554,0.));
#1214=CARTESIAN_POINT('Origin',(-17.5,30.3108891324554,0.));
#1215=CARTESIAN_POINT('Origin',(17.5,30.3108891324554,0.));
#1216=CARTESIAN_POINT('',(14.95,30.3108891324554,8.));
#1217=CARTESIAN_POINT('Origin',(17.5,30.3108891324554,8.));
#1218=CARTESIAN_POINT('',(14.95,30.3108891324554,0.));
#1219=CARTESIAN_POINT('',(14.95,30.3108891324554,0.));
#1220=CARTESIAN_POINT('Origin',(17.5,30.3108891324554,0.));
#1221=CARTESIAN_POINT('Origin',(0.,0.,0.));
#1222=CARTESIAN_POINT('',(-9.55,0.,8.));
#1223=CARTESIAN_POINT('Origin',(0.,0.,8.));
#1224=CARTESIAN_POINT('',(-9.55,-1.16953769318572E-15,0.));
#1225=CARTESIAN_POINT('',(-9.55,-1.16953769318572E-15,0.));
#1226=CARTESIAN_POINT('Origin',(0.,0.,0.));
#1227=CARTESIAN_POINT('Origin',(36.4607454190549,21.0506211825458,0.));
#1228=CARTESIAN_POINT('',(23.340644028986,27.4583679096298,0.));
#1229=CARTESIAN_POINT('',(35.4499661706917,6.48440671497656,0.));
#1230=CARTESIAN_POINT('Origin',(36.4607454190549,21.0506211825458,0.));
#1231=CARTESIAN_POINT('',(23.340644028986,27.4583679096298,8.));
#1232=CARTESIAN_POINT('',(23.340644028986,27.4583679096298,0.));
#1233=CARTESIAN_POINT('',(35.4499661706917,6.48440671497656,8.));
#1234=CARTESIAN_POINT('Origin',(36.4607454190549,21.0506211825458,8.));
#1235=CARTESIAN_POINT('',(35.4499661706917,6.48440671497656,0.));
#1236=CARTESIAN_POINT('Origin',(35.,1.57032194594279E-16,0.));
#1237=CARTESIAN_POINT('',(35.4499661706918,-6.48440671497655,0.));
#1238=CARTESIAN_POINT('Origin',(35.,1.57032194594279E-16,0.));
#1239=CARTESIAN_POINT('',(35.4499661706918,-6.48440671497656,8.));
#1240=CARTESIAN_POINT('Origin',(35.,1.57032194594279E-16,8.));
#1241=CARTESIAN_POINT('',(35.4499661706918,-6.48440671497655,0.));
#1242=CARTESIAN_POINT('Origin',(36.4607454190549,-21.0506211825458,0.));
#1243=CARTESIAN_POINT('',(23.3406440289859,-27.4583679096297,0.));
#1244=CARTESIAN_POINT('Origin',(36.4607454190549,-21.0506211825458,0.));
#1245=CARTESIAN_POINT('',(23.3406440289859,-27.4583679096297,8.));
#1246=CARTESIAN_POINT('Origin',(36.4607454190549,-21.0506211825458,8.));
#1247=CARTESIAN_POINT('',(23.3406440289859,-27.4583679096297,0.));
#1248=CARTESIAN_POINT('Origin',(17.5,-30.3108891324554,0.));
#1249=CARTESIAN_POINT('',(12.1093221417058,-33.9427746246063,0.));
#1250=CARTESIAN_POINT('Origin',(17.5,-30.3108891324554,0.));
#1251=CARTESIAN_POINT('',(12.1093221417058,-33.9427746246063,8.));
#1252=CARTESIAN_POINT('Origin',(17.5,-30.3108891324554,8.));
#1253=CARTESIAN_POINT('',(12.1093221417058,-33.9427746246063,0.));
#1254=CARTESIAN_POINT('Origin',(1.65199819060575E-14,-42.1012423650916,
0.));
#1255=CARTESIAN_POINT('',(-12.1093221417057,-33.9427746246062,0.));
#1256=CARTESIAN_POINT('Origin',(1.65199819060575E-14,-42.1012423650916,
0.));
#1257=CARTESIAN_POINT('',(-12.1093221417057,-33.9427746246062,8.));
#1258=CARTESIAN_POINT('Origin',(1.65199819060575E-14,-42.1012423650916,
8.));
#1259=CARTESIAN_POINT('',(-12.1093221417057,-33.9427746246062,0.));
#1260=CARTESIAN_POINT('Origin',(-17.5,-30.3108891324554,0.));
#1261=CARTESIAN_POINT('',(-23.3406440289859,-27.4583679096297,0.));
#1262=CARTESIAN_POINT('Origin',(-17.5,-30.3108891324554,0.));
#1263=CARTESIAN_POINT('',(-23.3406440289859,-27.4583679096297,8.));
#1264=CARTESIAN_POINT('Origin',(-17.5,-30.3108891324554,8.));
#1265=CARTESIAN_POINT('',(-23.3406440289859,-27.4583679096297,0.));
#1266=CARTESIAN_POINT('Origin',(-36.460745419055,-21.0506211825458,0.));
#1267=CARTESIAN_POINT('',(-35.4499661706916,-6.48440671497655,0.));
#1268=CARTESIAN_POINT('Origin',(-36.460745419055,-21.0506211825458,0.));
#1269=CARTESIAN_POINT('',(-35.4499661706916,-6.48440671497656,8.));
#1270=CARTESIAN_POINT('Origin',(-36.460745419055,-21.0506211825458,8.));
#1271=CARTESIAN_POINT('',(-35.4499661706916,-6.48440671497655,0.));
#1272=CARTESIAN_POINT('Origin',(-35.,7.75980123052212E-15,0.));
#1273=CARTESIAN_POINT('',(-35.4499661706917,6.48440671497657,0.));
#1274=CARTESIAN_POINT('Origin',(-35.,7.75980123052212E-15,0.));
#1275=CARTESIAN_POINT('',(-35.4499661706917,6.48440671497656,8.));
#1276=CARTESIAN_POINT('Origin',(-35.,7.75980123052212E-15,8.));
#1277=CARTESIAN_POINT('',(-35.4499661706917,6.48440671497657,0.));
#1278=CARTESIAN_POINT('Origin',(-36.4607454190549,21.0506211825458,0.));
#1279=CARTESIAN_POINT('',(-23.3406440289859,27.4583679096296,0.));
#1280=CARTESIAN_POINT('Origin',(-36.4607454190549,21.0506211825458,0.));
#1281=CARTESIAN_POINT('',(-23.3406440289859,27.4583679096296,8.));
#1282=CARTESIAN_POINT('Origin',(-36.4607454190549,21.0506211825458,8.));
#1283=CARTESIAN_POINT('',(-23.3406440289859,27.4583679096296,0.));
#1284=CARTESIAN_POINT('Origin',(-17.5,30.3108891324554,0.));
#1285=CARTESIAN_POINT('',(-12.1093221417057,33.9427746246062,0.));
#1286=CARTESIAN_POINT('Origin',(-17.5,30.3108891324554,0.));
#1287=CARTESIAN_POINT('',(-12.1093221417057,33.9427746246062,8.));
#1288=CARTESIAN_POINT('Origin',(-17.5,30.3108891324554,8.));
#1289=CARTESIAN_POINT('',(-12.1093221417057,33.9427746246062,0.));
#1290=CARTESIAN_POINT('Origin',(-4.35017831803462E-15,42.1012423650916,
0.));
#1291=CARTESIAN_POINT('',(12.1093221417057,33.9427746246062,0.));
#1292=CARTESIAN_POINT('Origin',(-4.35017831803462E-15,42.1012423650916,
0.));
#1293=CARTESIAN_POINT('',(12.1093221417057,33.9427746246062,8.));
#1294=CARTESIAN_POINT('Origin',(-4.35017831803462E-15,42.1012423650916,
8.));
#1295=CARTESIAN_POINT('',(12.1093221417057,33.9427746246062,0.));
#1296=CARTESIAN_POINT('Origin',(17.5,30.3108891324554,0.));
#1297=CARTESIAN_POINT('Origin',(17.5,30.3108891324554,0.));
#1298=CARTESIAN_POINT('Origin',(17.5,30.3108891324554,8.));
#1299=CARTESIAN_POINT('Origin',(0.,0.,8.));
#1300=CARTESIAN_POINT('Origin',(0.,0.,0.));
#1301=UNCERTAINTY_MEASURE_WITH_UNIT(LENGTH_MEASURE(0.01),#1305,
'DISTANCE_ACCURACY_VALUE',
'Maximum model space distance between geometric entities at asserted c
onnectivities');
#1302=UNCERTAINTY_MEASURE_WITH_UNIT(LENGTH_MEASURE(0.01),#1305,
'DISTANCE_ACCURACY_VALUE',
'Maximum model space distance between geometric entities at asserted c
onnectivities');
#1303=(
GEOMETRIC_REPRESENTATION_CONTEXT(3)
GLOBAL_UNCERTAINTY_ASSIGNED_CONTEXT((#1301))
GLOBAL_UNIT_ASSIGNED_CONTEXT((#1305,#1307,#1308))
REPRESENTATION_CONTEXT('','3D')
);
#1304=(
GEOMETRIC_REPRESENTATION_CONTEXT(3)
GLOBAL_UNCERTAINTY_ASSIGNED_CONTEXT((#1302))
GLOBAL_UNIT_ASSIGNED_CONTEXT((#1305,#1307,#1308))
REPRESENTATION_CONTEXT('','3D')
);
#1305=(
LENGTH_UNIT()
NAMED_UNIT(*)
SI_UNIT(.MILLI.,.METRE.)
);
#1306=(
LENGTH_UNIT()
NAMED_UNIT(*)
SI_UNIT($,.METRE.)
);
#1307=(
NAMED_UNIT(*)
PLANE_ANGLE_UNIT()
SI_UNIT($,.RADIAN.)
);
#1308=(
NAMED_UNIT(*)
SI_UNIT($,.STERADIAN.)
SOLID_ANGLE_UNIT()
);
#1309=SHAPE_DEFINITION_REPRESENTATION(#1310,#1311);
#1310=PRODUCT_DEFINITION_SHAPE('',$,#1313);
#1311=SHAPE_REPRESENTATION('',(#761),#1303);
#1312=PRODUCT_DEFINITION_CONTEXT('part definition',#1317,'design');
#1313=PRODUCT_DEFINITION('2026-01-23-05-01-12-053',
'ImageToStl.com_110\X2\7535673A652F67B65E266CD55170\X0\',#1314,#1312);
#1314=PRODUCT_DEFINITION_FORMATION('',$,#1319);
#1315=PRODUCT_RELATED_PRODUCT_CATEGORY(
'ImageToStl.com_110\X2\7535673A652F67B65E266CD55170\X0\',
'ImageToStl.com_110\X2\7535673A652F67B65E266CD55170\X0\',(#1319));
#1316=APPLICATION_PROTOCOL_DEFINITION('international standard',
'automotive_design',2009,#1317);
#1317=APPLICATION_CONTEXT(
'Core Data for Automotive Mechanical Design Process');
#1318=PRODUCT_CONTEXT('part definition',#1317,'mechanical');
#1319=PRODUCT('2026-01-23-05-01-12-053',
'ImageToStl.com_110\X2\7535673A652F67B65E266CD55170\X0\',$,(#1318));
#1320=PRESENTATION_STYLE_ASSIGNMENT((#1321));
#1321=SURFACE_STYLE_USAGE(.BOTH.,#1322);
#1322=SURFACE_SIDE_STYLE('',(#1323));
#1323=SURFACE_STYLE_FILL_AREA(#1324);
#1324=FILL_AREA_STYLE('\X2\94A2\X0\ - \X2\7F0E5149\X0\',(#1325));
#1325=FILL_AREA_STYLE_COLOUR('\X2\94A2\X0\ - \X2\7F0E5149\X0\',#1326);
#1326=COLOUR_RGB('\X2\94A2\X0\ - \X2\7F0E5149\X0\',0.627450980392157,0.627450980392157,
0.627450980392157);
ENDSEC;
END-ISO-10303-21;
